<svg width="340" height="120" viewBox="0 0 340 120" fill="none" xmlns="http://www.w3.org/2000/svg">
<rect width="340" height="120" rx="16" fill="white"/>
<path d="M90 60C90 76.5688 76.5688 90 60 90C43.4312 90 30 76.5688 30 60C30 43.4312 43.4312 30 60 30C76.5688 30 90 43.4312 90 60Z" fill="url(#paint0_linear_2149_163)"/>
<path d="M74.8171 68.03C73.8339 67.2054 68.0671 63.5536 67.1086 63.7213C66.6586 63.8011 66.3144 64.1848 65.393 65.2839C64.9669 65.8249 64.499 66.3316 63.9935 66.7993C63.0674 66.5755 62.1709 66.2432 61.3228 65.8092C57.9964 64.1898 55.3092 61.5018 53.6908 58.175C53.2568 57.3268 52.9245 56.4304 52.7008 55.5042C53.1684 54.9988 53.6751 54.5308 54.2161 54.1048C55.3141 53.1834 55.6989 52.8414 55.7788 52.3891C55.9464 51.4284 52.2913 45.6639 51.47 44.6806C51.1258 44.2734 50.813 44 50.4125 44C49.2515 44 44 50.4935 44 51.335C44 51.4036 44.1125 58.1638 52.6501 66.8499C61.3363 75.3875 68.0964 75.5 68.165 75.5C69.0065 75.5 75.5 70.2485 75.5 69.0875C75.5 68.687 75.2266 68.3743 74.8171 68.03V68.03Z" fill="white"/>
<path d="M67.875 58.875H70.125C70.1223 56.4889 69.1732 54.2012 67.486 52.514C65.7988 50.8268 63.5111 49.8777 61.125 49.875V52.125C62.9147 52.1268 64.6305 52.8385 65.896 54.104C67.1615 55.3695 67.8732 57.0853 67.875 58.875V58.875Z" fill="white"/>
<path d="M73.5 58.875H75.75C75.7455 54.9976 74.2033 51.2802 71.4615 48.5385C68.7198 45.7967 65.0024 44.2545 61.125 44.25V46.5C64.4059 46.5039 67.5512 47.8089 69.8712 50.1288C72.1911 52.4488 73.4961 55.5941 73.5 58.875Z" fill="white"/>
<path d="M119.756 48.136L119.18 47.254C118.496 47.758 117.542 48.28 116.246 48.28C113.78 48.28 112.178 45.922 112.178 42.61C112.178 39.334 113.636 37.03 116.408 37.03C117.56 37.03 118.334 37.408 119.144 38.02L119.72 37.12C118.982 36.598 118.028 36.022 116.408 36.022C112.88 36.022 110.99 38.92 110.99 42.628C110.99 46.606 113.006 49.288 116.246 49.288C117.758 49.288 118.838 48.802 119.756 48.136ZM128.055 49C128.055 48.694 128.001 47.488 128.001 47.128V42.808C128.001 40.99 127.155 39.802 124.833 39.802C123.699 39.802 122.601 40.162 121.791 40.576L122.169 41.476C122.889 41.134 123.753 40.738 125.013 40.738C126.093 40.738 126.903 41.314 126.903 42.754V43.582H125.841C122.817 43.582 121.377 44.68 121.377 46.57C121.377 48.19 122.601 49.198 124.275 49.198C125.733 49.198 126.615 48.424 127.011 47.848C127.011 47.956 127.137 48.91 127.137 49H128.055ZM126.903 46.966C126.453 47.614 125.607 48.262 124.581 48.262C123.375 48.262 122.529 47.524 122.529 46.534C122.529 45.094 123.573 44.41 126.039 44.41H126.903V46.966ZM131.979 49V36.04H130.881V49H131.979ZM135.952 49V36.04H134.854V49H135.952ZM150.581 49C150.563 48.694 150.527 47.686 150.527 47.38V40H149.429V46.876C149.033 47.542 148.169 48.28 147.179 48.28C145.775 48.28 145.145 47.524 145.145 45.886V40H144.047V46.066C144.047 47.92 144.965 49.198 146.981 49.198C148.079 49.198 148.979 48.658 149.555 47.866L149.627 49H150.581ZM158.943 46.696C158.943 44.752 157.413 44.212 155.991 43.78C154.605 43.348 154.047 43.024 154.047 42.124C154.047 41.242 154.731 40.72 155.937 40.72C156.729 40.72 157.467 40.936 158.295 41.512L158.817 40.666C157.917 40.054 157.053 39.802 155.973 39.802C154.389 39.802 152.895 40.558 152.895 42.196C152.895 43.834 154.209 44.428 155.685 44.86C157.017 45.256 157.791 45.58 157.791 46.75C157.791 47.56 157.017 48.28 155.829 48.28C154.695 48.28 153.921 47.902 153.147 47.362L152.589 48.208C153.381 48.712 154.245 49.198 155.883 49.198C157.287 49.198 158.943 48.442 158.943 46.696Z" fill="#151515"/>
<path d="M120.78 76.106C120.78 73.796 118.954 72.85 118.052 72.454C118.8 72.014 120.428 70.98 120.428 69C120.428 66.426 118.228 65.04 115.632 65.04C113.014 65.04 110.792 66.404 110.792 69C110.792 70.98 112.178 71.992 112.97 72.52C112.222 72.96 110.44 73.884 110.44 76.106C110.44 78.746 112.244 80.418 115.61 80.418C118.558 80.418 120.78 78.834 120.78 76.106ZM117.458 69.044C117.458 70.034 116.974 70.694 116.028 71.442C114.158 70.826 113.762 69.99 113.762 69.022C113.762 67.966 114.664 67.482 115.61 67.482C116.666 67.482 117.458 67.988 117.458 69.044ZM117.744 76.106C117.744 77.294 116.864 77.976 115.61 77.976C114.356 77.976 113.476 77.36 113.476 76.106C113.476 75.16 113.85 74.39 114.884 73.598C116.996 74.28 117.744 74.83 117.744 76.106ZM133.271 72.63C133.271 67.768 131.093 65.04 127.573 65.04C124.097 65.04 121.875 67.548 121.875 72.63C121.875 77.448 123.987 80.418 127.573 80.418C130.895 80.418 133.271 77.558 133.271 72.63ZM130.235 72.63C130.235 76.634 128.915 77.91 127.573 77.91C126.231 77.91 124.911 76.634 124.911 72.63C124.911 68.626 126.231 67.548 127.573 67.548C128.915 67.548 130.235 68.626 130.235 72.63ZM145.99 72.63C145.99 67.768 143.812 65.04 140.292 65.04C136.816 65.04 134.594 67.548 134.594 72.63C134.594 77.448 136.706 80.418 140.292 80.418C143.614 80.418 145.99 77.558 145.99 72.63ZM142.954 72.63C142.954 76.634 141.634 77.91 140.292 77.91C138.95 77.91 137.63 76.634 137.63 72.63C137.63 68.626 138.95 67.548 140.292 67.548C141.634 67.548 142.954 68.626 142.954 72.63ZM157.058 80V77.492H154.792V65.37H152.086L147.422 68.032L148.786 70.408L151.888 68.472V77.492H148.698V80H157.058ZM167.529 80V77.426H162.359L164.515 75.292C166.165 73.642 167.419 71.838 167.419 69.77C167.419 67.02 165.725 65.04 162.469 65.04C160.401 65.04 159.125 65.964 157.937 67.02L159.521 68.978C160.313 68.252 161.083 67.548 162.249 67.548C163.657 67.548 164.405 68.472 164.405 69.836C164.405 71.42 162.953 73.004 161.127 74.786L158.311 77.558V80H167.529ZM180.978 76.788V74.346H178.382V65.26H175.654L168.636 74.412V76.788H175.522V80H178.382V76.788H180.978ZM175.566 74.346H171.518L175.566 69.022V74.346ZM191.011 80V77.426H185.841L187.997 75.292C189.647 73.642 190.901 71.838 190.901 69.77C190.901 67.02 189.207 65.04 185.951 65.04C183.883 65.04 182.607 65.964 181.419 67.02L183.003 68.978C183.795 68.252 184.565 67.548 185.731 67.548C187.139 67.548 187.887 68.472 187.887 69.836C187.887 71.42 186.435 73.004 184.609 74.786L181.793 77.558V80H191.011ZM201.71 80V77.426H196.54L198.696 75.292C200.346 73.642 201.6 71.838 201.6 69.77C201.6 67.02 199.906 65.04 196.65 65.04C194.582 65.04 193.306 65.964 192.118 67.02L193.702 68.978C194.494 68.252 195.264 67.548 196.43 67.548C197.838 67.548 198.586 68.472 198.586 69.836C198.586 71.42 197.134 73.004 195.308 74.786L192.492 77.558V80H201.71ZM215.16 76.788V74.346H212.564V65.26H209.836L202.818 74.412V76.788H209.704V80H212.564V76.788H215.16ZM209.748 74.346H205.7L209.748 69.022V74.346ZM227.437 72.63C227.437 67.768 225.259 65.04 221.739 65.04C218.263 65.04 216.041 67.548 216.041 72.63C216.041 77.448 218.153 80.418 221.739 80.418C225.061 80.418 227.437 77.558 227.437 72.63ZM224.401 72.63C224.401 76.634 223.081 77.91 221.739 77.91C220.397 77.91 219.077 76.634 219.077 72.63C219.077 68.626 220.397 67.548 221.739 67.548C223.081 67.548 224.401 68.626 224.401 72.63Z" fill="#151515"/>
<defs>
<linearGradient id="paint0_linear_2149_163" x1="45.6923" y1="84.9231" x2="84" y2="39.2308" gradientUnits="userSpaceOnUse">
<stop stop-color="#00539E"/>
<stop offset="1" stop-color="#006DCF"/>
</linearGradient>
</defs>
</svg>
