<svg width="340" height="120" viewBox="0 0 340 120" fill="none" xmlns="http://www.w3.org/2000/svg">
<rect width="340" height="120" rx="16" fill="white"/>
<path d="M90 60C90 76.5688 76.5688 90 60 90C43.4312 90 30 76.5688 30 60C30 43.4312 43.4312 30 60 30C76.5688 30 90 43.4312 90 60Z" fill="url(#paint0_linear_2168_171)"/>
<path d="M61.5141 47L44 52.8138V71.0001H52.2097V58.6855H70.8185V71.0001H79.0282V52.8138L61.5141 47Z" fill="white"/>
<path d="M54.2627 71.0001H68.7666V60.7379H54.2627V71.0001ZM62.5408 62.7903H66.7141V64.8428H62.5408V62.7903ZM62.5408 66.8952H66.7141V68.9476H62.5408V66.8952ZM56.3151 62.7903H60.4884V64.8428H56.3151V62.7903ZM56.3151 66.8952H60.4884V68.9476H56.3151V66.8952Z" fill="white"/>
<path d="M124.784 53.49H121.682L119.086 61.388C118.646 62.752 117.81 65.7 117.81 65.7C117.81 65.7 116.974 62.752 116.534 61.388L113.938 53.49H110.66L116.006 69H119.636L124.784 53.49ZM130.023 56.108V53.16H126.877V56.108H130.023ZM129.935 69V58H126.965V69H129.935ZM140.989 65.964C140.989 63.544 139.251 62.774 138.195 62.488C136.435 62.026 135.423 61.762 135.423 60.838C135.423 60.244 135.885 59.958 136.941 59.958C137.447 59.958 138.833 60.222 139.691 60.948L140.879 58.968C139.647 58.022 138.393 57.692 136.809 57.692C133.971 57.692 132.387 59.1 132.387 61.124C132.387 63.302 134.323 64.204 135.819 64.578C137.161 64.908 137.953 65.194 137.953 66.052C137.953 66.69 137.513 67.042 136.435 67.042C135.313 67.042 134.147 66.448 133.201 65.744L131.903 67.79C133.267 68.692 134.499 69.308 136.523 69.308C139.097 69.308 140.989 68.23 140.989 65.964ZM146.33 56.108V53.16H143.184V56.108H146.33ZM146.242 69V58H143.272V69H146.242ZM156.394 68.648L155.514 66.514C155.184 66.69 154.568 66.888 154.084 66.888C153.138 66.888 152.852 66.294 152.852 65.216V60.31H155.668V58H152.874V55.03H149.882V58H147.99V60.31H149.882V65.018C149.882 67.944 150.916 69.264 153.798 69.264C154.81 69.264 155.8 69 156.394 68.648ZM177.512 53.49H174.168L170.912 59.584L167.326 53.49H163.872L169.372 62.664V69H172.364V62.664L177.512 53.49ZM192.606 61.388C192.606 55.69 189.372 53.072 185.28 53.072C181.298 53.072 177.954 55.69 177.954 61.256C177.954 67.042 181.496 69.462 185.192 69.462C188.932 69.462 192.606 66.976 192.606 61.388ZM189.482 61.256C189.482 64.49 187.986 66.954 185.236 66.954C182.53 66.954 181.078 64.446 181.078 61.344C181.078 57.802 182.64 55.58 185.236 55.58C187.942 55.58 189.482 57.736 189.482 61.256ZM207.106 69L202.948 62.51C204.466 61.938 205.984 60.838 205.984 58.11C205.984 55.074 203.74 53.49 200.242 53.49H195.028V69H198.064V62.928H199.648L203.608 69H207.106ZM202.86 58.11C202.86 59.716 201.936 60.42 200.11 60.42H198.064V55.998H200.418C202.046 55.998 202.86 56.724 202.86 58.11ZM221.319 69L214.191 60.728L220.593 53.49H216.831L211.793 59.364V53.49H208.757V69H211.793V62.4L217.337 69H221.319ZM239.134 55.998V53.49H230.026V69H233.062V62.422H238.408V59.914H233.062V55.998H239.134ZM250 69C250 68.626 249.868 67.152 249.868 66.712V61.85C249.868 58.814 248.284 57.648 244.962 57.648C243.532 57.648 242.19 58.11 240.716 58.88L241.574 60.882C242.652 60.288 243.752 59.782 245.38 59.782C246.194 59.782 246.898 60.332 246.898 61.608V62.004H245.754C242.476 62.004 240.342 63.28 240.342 65.788C240.342 68.428 242.388 69.352 244.126 69.352C245.534 69.352 246.744 68.692 247.448 67.746L247.778 69H250ZM246.898 66.228C246.59 66.69 245.952 67.218 245.028 67.218C243.994 67.218 243.378 66.646 243.378 65.744C243.378 64.292 244.522 63.896 245.996 63.896H246.898V66.228ZM261.731 58.99C260.719 58.22 259.465 57.648 257.947 57.648C254.295 57.648 252.183 60.002 252.183 63.566C252.183 66.866 254.053 69.352 257.925 69.352C259.333 69.352 260.697 68.78 261.687 67.988L260.411 65.92C259.553 66.558 258.893 66.954 257.771 66.954C256.319 66.954 255.219 65.37 255.219 63.566C255.219 60.948 256.451 60.046 257.815 60.046C259.025 60.046 259.707 60.552 260.323 61.058L261.731 58.99ZM270.69 68.648L269.81 66.514C269.48 66.69 268.864 66.888 268.38 66.888C267.434 66.888 267.148 66.294 267.148 65.216V60.31H269.964V58H267.17V55.03H264.178V58H262.286V60.31H264.178V65.018C264.178 67.944 265.212 69.264 268.094 69.264C269.106 69.264 270.096 69 270.69 68.648ZM282.518 63.456C282.518 59.694 280.208 57.648 277.04 57.648C273.938 57.648 271.562 59.694 271.562 63.456C271.562 67.218 273.916 69.352 277.04 69.352C280.142 69.352 282.518 67.24 282.518 63.456ZM279.504 63.456C279.504 65.414 278.8 67.042 277.04 67.042C275.39 67.042 274.576 65.414 274.576 63.456C274.576 61.476 275.28 59.958 277.04 59.958C278.668 59.958 279.504 61.476 279.504 63.456ZM291.694 57.758C291.474 57.692 291.166 57.648 290.748 57.648C288.702 57.648 287.734 58.77 287.14 59.958L286.92 58H284.698C284.72 58.374 284.83 59.716 284.83 60.09V69H287.8V62.114C288.174 61.542 288.746 60.662 289.802 60.662C290.11 60.662 290.44 60.728 290.836 60.97L291.694 57.758ZM303.366 58H300.374L298.262 66.008C298.262 66.008 297.58 63.654 297.052 62.246L295.446 58H292.3L296.766 68.956L296.612 69.528C296.348 70.474 295.424 71.42 293.356 71.706L293.774 74.06C296.392 73.818 298.614 72.696 299.538 69.836L303.366 58Z" fill="#151515"/>
<defs>
<linearGradient id="paint0_linear_2168_171" x1="45.6923" y1="84.9231" x2="84" y2="39.2308" gradientUnits="userSpaceOnUse">
<stop stop-color="#00539E"/>
<stop offset="1" stop-color="#006DCF"/>
</linearGradient>
</defs>
</svg>
