<svg width="1154" height="1151" viewBox="0 0 1154 1151" fill="none" xmlns="http://www.w3.org/2000/svg">
<g opacity="0.04" clip-path="url(#clip0_2147_231)">
<path d="M990.147 173.086C982.075 164.819 973.742 156.682 965.149 148.871C874.337 191.703 799.344 245.211 742.252 308.548C749.608 357.954 754.816 408.533 757.095 460.348C764.907 640.074 738.542 790.572 686.463 912.494C724.871 978.174 778.577 1037.08 847.907 1085.97C867.567 1075.43 886.576 1063.77 904.803 1051.08C799.604 928.377 747.981 776.967 757.095 614.557C766.794 439.713 853.701 285.309 990.082 173.151" fill="#63B197"/>
<path d="M856.044 70.6274C845.824 64.8991 835.343 59.4311 824.667 54.3538C780.856 74.3378 739.713 97.7067 701.631 124.07C709.312 150.238 716.343 176.992 722.593 204.331C764.776 156.552 810.41 111.897 856.044 70.6274" fill="#51AFC1"/>
<path d="M688.481 1142.8C712.828 1137.98 736.589 1131.6 759.699 1123.86C721.486 1081.61 684.184 1034.48 651.179 984.098C634.644 1013.26 616.547 1040.66 596.822 1065.86C624.684 1093.26 655.281 1118.91 688.481 1142.73" fill="#51AFC1"/>
<path d="M1138.57 443.814C1079.59 494.522 1039.04 559.487 1025.56 634.476C1010.98 714.737 1030.77 794.868 1075.82 866.212C1125.49 780.938 1154.07 681.864 1154.07 576.021C1154.07 530.52 1148.66 486.321 1138.64 443.749" fill="#9DBE43"/>
<path d="M961.113 623.93C972.831 513.465 1014.17 397.792 1088.84 309.459C1083.04 298.458 1077.12 287.587 1070.67 276.977C927.848 355.025 835.539 478.379 822.063 629.854C810.15 763.623 872.514 897.913 975.5 993.276C991.384 978.174 1006.49 962.096 1020.48 945.236C970.683 850.199 948.549 741.881 961.113 623.865" fill="#59B5E0"/>
<path d="M175.245 160.263C75.3189 256.602 10.2205 388.614 0 535.792C96.2155 443.619 156.366 295.919 175.245 160.198" fill="#59B5E0"/>
<path d="M289.102 74.7285C280.184 79.871 271.33 85.2738 262.737 90.8068C207.599 350.729 116.591 523.164 3.97119 655.241C8.07239 684.403 14.1265 712.914 22.394 740.58C258.506 595.419 308.306 271.639 289.102 74.7285Z" fill="#4498C8"/>
<path d="M758.918 460.348C751.757 294.878 717.059 140.213 662.051 4.68676C651.05 3.1245 639.853 1.82261 628.526 0.846191C680.214 438.671 629.893 860.939 373.795 1117.28C419.755 1134.53 468.449 1146.05 519.16 1151.07C676.698 1012.67 772.979 782.891 758.918 460.413" fill="#234A90"/>
<path d="M533.872 0C522.871 0.781133 511.934 1.88774 501.063 3.25472C511.414 288.434 463.371 761.41 181.69 997.963C207.794 1022.37 236.177 1044.38 266.513 1063.64C631.455 815.698 629.697 330.55 533.872 0Z" fill="#25639C"/>
<path d="M406.214 23.8245C396.515 26.7537 386.945 29.9433 377.571 33.3933C360.906 326.839 282.137 639.097 61.8438 838.937C76.2305 867.123 92.8957 893.877 111.579 919.133C410.316 738.757 471.443 311.282 406.214 23.8245Z" fill="#347DB0"/>
</g>
<defs>
<clipPath id="clip0_2147_231">
<rect width="1154" height="1151" fill="white"/>
</clipPath>
</defs>
</svg>
