<svg width="45" height="45" viewBox="0 0 45 45" fill="none" xmlns="http://www.w3.org/2000/svg">
<path d="M22.5 45C34.9264 45 45 34.9264 45 22.5C45 10.0736 34.9264 0 22.5 0C10.0736 0 0 10.0736 0 22.5C0 34.9264 10.0736 45 22.5 45Z" fill="#007AB9"/>
<path d="M35.9434 24.3106V33.5869H30.5653V24.9323C30.5653 22.7592 29.7888 21.2752 27.8415 21.2752C26.3555 21.2752 25.4727 22.2743 25.0829 23.2417C24.9413 23.5874 24.9048 24.0675 24.9048 24.5524V33.5865H19.5263C19.5263 33.5865 19.5985 18.9284 19.5263 17.4111H24.9052V19.7033C24.8944 19.7214 24.8791 19.739 24.8695 19.7563H24.9052V19.7033C25.6199 18.6036 26.8946 17.0313 29.7523 17.0313C33.2907 17.0313 35.9434 19.3432 35.9434 24.3106ZM13.8999 9.61407C12.0601 9.61407 10.8564 10.8217 10.8564 12.4084C10.8564 13.9614 12.0252 15.204 13.8293 15.204H13.8642C15.74 15.204 16.9064 13.9614 16.9064 12.4084C16.8707 10.8217 15.74 9.61407 13.8999 9.61407ZM11.1761 33.5869H16.5526V17.4111H11.1761V33.5869Z" fill="#F1F2F2"/>
</svg>
