<svg width="340" height="120" viewBox="0 0 340 120" fill="none" xmlns="http://www.w3.org/2000/svg">
<rect width="340" height="120" rx="16" fill="white"/>
<path d="M90 60C90 76.5688 76.5688 90 60 90C43.4312 90 30 76.5688 30 60C30 43.4312 43.4312 30 60 30C76.5688 30 90 43.4312 90 60Z" fill="url(#paint0_linear_2148_177)"/>
<path d="M43.8667 56.3342C43.8675 56.3334 43.8683 56.3326 43.8691 56.3318L58.1782 42.0233C58.7881 41.4131 59.599 41.0769 60.4616 41.0769C61.3241 41.0769 62.135 41.4128 62.7452 42.023L77.0468 56.3243C77.0516 56.3291 77.0564 56.3342 77.0612 56.339C78.3137 57.5987 78.3116 59.6426 77.0551 60.8991C76.481 61.4734 75.7228 61.806 74.9122 61.8408C74.8793 61.844 74.8461 61.8456 74.8127 61.8456H74.2423V72.3758C74.2423 74.4596 72.5469 76.155 70.4627 76.155H64.8645C64.2972 76.155 63.8369 75.6949 63.8369 75.1273V66.8716C63.8369 65.9208 63.0634 65.1473 62.1125 65.1473H58.8106C57.8597 65.1473 57.0863 65.9208 57.0863 66.8716V75.1273C57.0863 75.6949 56.6263 76.155 56.0586 76.155H50.4605C48.3762 76.155 46.6808 74.4596 46.6808 72.3758V61.8456H46.152C45.2897 61.8456 44.4788 61.5098 43.8683 60.8996C42.6105 59.641 42.61 57.5936 43.8667 56.3342Z" fill="white"/>
<path d="M123.42 69V53.49H120.384V59.672H114.576V53.49H111.54V69H114.576V62.202H120.384V69H123.42ZM136.789 63.456C136.789 59.694 134.479 57.648 131.311 57.648C128.209 57.648 125.833 59.694 125.833 63.456C125.833 67.218 128.187 69.352 131.311 69.352C134.413 69.352 136.789 67.24 136.789 63.456ZM133.775 63.456C133.775 65.414 133.071 67.042 131.311 67.042C129.661 67.042 128.847 65.414 128.847 63.456C128.847 61.476 129.551 59.958 131.311 59.958C132.939 59.958 133.775 61.476 133.775 63.456ZM155.25 69V62.95C155.25 59.54 154.37 57.648 151.158 57.648C149.75 57.648 148.716 58.33 147.946 59.32C147.264 58.33 146.428 57.648 144.558 57.648C143.502 57.648 142.468 58.264 141.522 59.32L141.192 58H138.97C138.992 58.374 139.102 59.606 139.102 59.98V69H142.072V61.278C142.49 60.684 143.326 60.046 144.008 60.046C145.614 60.046 145.68 61.036 145.68 62.928V69H148.65V61.784C148.65 61.586 148.65 61.41 148.628 61.234C149.134 60.552 149.794 60.046 150.608 60.046C152.082 60.046 152.28 61.212 152.28 62.884V69H155.25ZM167.884 64.38C167.884 60.552 166.542 57.648 162.846 57.648C159.942 57.648 157.566 59.342 157.566 63.588C157.566 67.57 160.294 69.352 163.418 69.352C164.958 69.352 166.322 68.868 167.664 67.768L166.3 65.876C165.398 66.646 164.65 67.042 163.33 67.042C162.23 67.042 160.778 66.448 160.492 64.38H167.884ZM165.024 62.466H160.514C160.668 60.64 161.438 59.782 162.802 59.782C164.408 59.782 165.002 60.948 165.024 62.466ZM188.061 58.572C188.061 55.316 185.751 53.49 181.791 53.49H177.347V69H180.383V63.764H181.967C185.487 63.764 188.061 62.268 188.061 58.572ZM184.937 58.572C184.937 60.75 183.177 61.256 181.945 61.256H180.383V55.998H181.923C183.617 55.998 184.937 56.746 184.937 58.572ZM199.039 69C199.039 68.626 198.907 67.152 198.907 66.712V61.85C198.907 58.814 197.323 57.648 194.001 57.648C192.571 57.648 191.229 58.11 189.755 58.88L190.613 60.882C191.691 60.288 192.791 59.782 194.419 59.782C195.233 59.782 195.937 60.332 195.937 61.608V62.004H194.793C191.515 62.004 189.381 63.28 189.381 65.788C189.381 68.428 191.427 69.352 193.165 69.352C194.573 69.352 195.783 68.692 196.487 67.746L196.817 69H199.039ZM195.937 66.228C195.629 66.69 194.991 67.218 194.067 67.218C193.033 67.218 192.417 66.646 192.417 65.744C192.417 64.292 193.561 63.896 195.035 63.896H195.937V66.228ZM212.31 57.714L207.734 57.89C207.316 57.802 206.722 57.648 206.26 57.648C203.026 57.648 201.508 59.496 201.508 61.762C201.508 63.016 202.322 64.138 203.268 64.644C202.74 64.974 201.97 65.59 201.97 66.536C201.97 67.284 202.322 67.812 203.114 68.252C202.08 68.67 201.156 69.374 201.156 71.024C201.156 73.136 203.114 74.28 206.634 74.28C209.78 74.28 211.584 72.586 211.584 70.672C211.584 68.406 210 67.416 208.416 67.152L205.248 66.602C204.72 66.514 204.434 66.36 204.434 66.052C204.434 65.788 204.588 65.546 204.764 65.392C205.094 65.502 205.82 65.634 206.304 65.634C208.746 65.634 211.034 64.622 211.034 61.718C211.034 61.08 210.814 60.244 210.264 59.694L211.936 59.848L212.31 57.714ZM208.174 61.718C208.174 62.906 207.272 63.434 206.282 63.434C205.072 63.434 204.39 62.664 204.39 61.762C204.39 60.75 204.962 59.848 206.26 59.848C207.778 59.848 208.174 60.772 208.174 61.718ZM208.702 70.65C208.702 71.508 207.91 72.168 206.524 72.168C204.654 72.168 203.686 71.508 203.686 70.672C203.686 69.836 204.082 69.198 204.61 68.89L207.448 69.352C208.35 69.506 208.702 70.012 208.702 70.65ZM223.958 64.38C223.958 60.552 222.616 57.648 218.92 57.648C216.016 57.648 213.64 59.342 213.64 63.588C213.64 67.57 216.368 69.352 219.492 69.352C221.032 69.352 222.396 68.868 223.738 67.768L222.374 65.876C221.472 66.646 220.724 67.042 219.404 67.042C218.304 67.042 216.852 66.448 216.566 64.38H223.958ZM221.098 62.466H216.588C216.742 60.64 217.512 59.782 218.876 59.782C220.482 59.782 221.076 60.948 221.098 62.466Z" fill="#151515"/>
<defs>
<linearGradient id="paint0_linear_2148_177" x1="45.6923" y1="84.9231" x2="84" y2="39.2308" gradientUnits="userSpaceOnUse">
<stop stop-color="#00539E"/>
<stop offset="1" stop-color="#006DCF"/>
</linearGradient>
</defs>
</svg>
