<svg width="340" height="120" viewBox="0 0 340 120" fill="none" xmlns="http://www.w3.org/2000/svg">
<rect width="340" height="120" rx="16" fill="white"/>
<path d="M90 60C90 76.5688 76.5688 90 60 90C43.4312 90 30 76.5688 30 60C30 43.4312 43.4312 30 60 30C76.5688 30 90 43.4312 90 60Z" fill="url(#paint0_linear_2148_177)"/>
<path d="M43.8667 56.3342C43.8675 56.3334 43.8683 56.3326 43.8691 56.3318L58.1782 42.0233C58.7881 41.4131 59.599 41.0769 60.4616 41.0769C61.3241 41.0769 62.135 41.4128 62.7452 42.023L77.0468 56.3243C77.0516 56.3291 77.0564 56.3342 77.0612 56.339C78.3137 57.5987 78.3116 59.6426 77.0551 60.8991C76.481 61.4734 75.7228 61.806 74.9122 61.8408C74.8793 61.844 74.8461 61.8456 74.8127 61.8456H74.2423V72.3758C74.2423 74.4596 72.5469 76.155 70.4627 76.155H64.8645C64.2972 76.155 63.8369 75.6949 63.8369 75.1273V66.8716C63.8369 65.9208 63.0634 65.1473 62.1125 65.1473H58.8106C57.8597 65.1473 57.0863 65.9208 57.0863 66.8716V75.1273C57.0863 75.6949 56.6263 76.155 56.0586 76.155H50.4605C48.3762 76.155 46.6808 74.4596 46.6808 72.3758V61.8456H46.152C45.2897 61.8456 44.4788 61.5098 43.8683 60.8996C42.6105 59.641 42.61 57.5936 43.8667 56.3342V56.3342Z" fill="white"/>
<path d="M120.548 36.31H119.27L115.742 42.52L111.962 36.31H110.63L115.148 43.618V49H116.3V43.618L120.548 36.31ZM132.285 42.664C132.285 38.812 130.269 36.022 126.885 36.022C123.465 36.022 121.449 38.866 121.449 42.664C121.449 46.48 123.447 49.288 126.849 49.288C130.305 49.288 132.285 46.426 132.285 42.664ZM131.115 42.664C131.115 46.03 129.477 48.298 126.867 48.298C124.293 48.298 122.619 46.048 122.619 42.664C122.619 39.208 124.293 37.012 126.867 37.012C129.459 37.012 131.115 39.208 131.115 42.664ZM142.939 49L139.195 43.276C140.941 43.114 142.381 41.926 142.381 39.766C142.381 37.624 140.959 36.31 138.169 36.31H134.803V49H135.919V43.366H137.953L141.571 49H142.939ZM141.211 39.766C141.211 41.314 140.383 42.412 138.205 42.412H135.919V37.264H138.295C140.185 37.264 141.211 38.218 141.211 39.766ZM153.648 49L147.6 42.232L153.306 36.31H151.866L146.484 41.944V36.31H145.368V49H146.484V42.646L152.118 49H153.648ZM175.166 36.31H173.996L171.872 45.112C171.602 46.246 171.296 47.83 171.296 47.83C171.296 47.83 170.972 46.246 170.684 45.112L168.416 36.31H166.94L164.618 45.112C164.312 46.246 164.024 47.794 164.024 47.794C164.024 47.794 163.754 46.264 163.484 45.112L161.378 36.31H160.136L163.214 49H164.762L167.066 40.27C167.354 39.154 167.642 37.642 167.642 37.642C167.642 37.642 167.912 39.136 168.2 40.252L170.504 49H172.034L175.166 36.31ZM183.852 44.842C183.852 42.016 183.006 39.802 180.18 39.802C178.182 39.802 176.328 41.368 176.328 44.59C176.328 47.578 178.146 49.198 180.486 49.198C181.782 49.198 182.736 48.748 183.564 48.1L183.024 47.344C182.394 47.83 181.548 48.262 180.486 48.262C178.956 48.262 177.588 47.146 177.498 44.842H183.852ZM182.718 43.942H177.498C177.642 41.782 178.74 40.702 180.18 40.702C181.782 40.702 182.682 41.764 182.718 43.942ZM193.453 44.464C193.453 41.602 192.103 39.802 189.997 39.802C188.575 39.802 187.819 40.594 187.333 41.242V36.04H186.235V47.308C186.235 47.74 186.199 48.604 186.181 49H187.099L187.189 47.974C187.765 48.694 188.593 49.198 189.907 49.198C192.247 49.198 193.453 47.092 193.453 44.464ZM192.301 44.5C192.301 46.876 191.203 48.28 189.637 48.28C188.521 48.28 187.927 47.812 187.333 47.2V42.358C187.711 41.764 188.521 40.72 189.763 40.72C191.041 40.72 192.301 41.674 192.301 44.5ZM201.377 46.696C201.377 44.752 199.847 44.212 198.425 43.78C197.039 43.348 196.481 43.024 196.481 42.124C196.481 41.242 197.165 40.72 198.371 40.72C199.163 40.72 199.901 40.936 200.729 41.512L201.251 40.666C200.351 40.054 199.487 39.802 198.407 39.802C196.823 39.802 195.329 40.558 195.329 42.196C195.329 43.834 196.643 44.428 198.119 44.86C199.451 45.256 200.225 45.58 200.225 46.75C200.225 47.56 199.451 48.28 198.263 48.28C197.129 48.28 196.355 47.902 195.581 47.362L195.023 48.208C195.815 48.712 196.679 49.198 198.317 49.198C199.721 49.198 201.377 48.442 201.377 46.696ZM204.968 37.426V36.04H203.69V37.426H204.968ZM204.878 49V40H203.78V49H204.878ZM212.068 49L211.816 48.064C211.51 48.136 211.204 48.19 210.988 48.19C209.674 48.19 209.224 47.452 209.224 46.12V40.918H211.744V40H209.224V37.57H208.126V40H206.542V40.918H208.126V46.03C208.126 47.938 208.828 49.162 210.988 49.162C211.33 49.162 211.708 49.09 212.068 49ZM220.731 44.842C220.731 42.016 219.885 39.802 217.059 39.802C215.061 39.802 213.207 41.368 213.207 44.59C213.207 47.578 215.025 49.198 217.365 49.198C218.661 49.198 219.615 48.748 220.443 48.1L219.903 47.344C219.273 47.83 218.427 48.262 217.365 48.262C215.835 48.262 214.467 47.146 214.377 44.842H220.731ZM219.597 43.942H214.377C214.521 41.782 215.619 40.702 217.059 40.702C218.661 40.702 219.561 41.764 219.597 43.942Z" fill="#151515"/>
<path d="M124.08 64.49H120.736L117.48 70.584L113.894 64.49H110.44L115.94 73.664V80H118.932V73.664L124.08 64.49ZM139.175 72.388C139.175 66.69 135.941 64.072 131.849 64.072C127.867 64.072 124.523 66.69 124.523 72.256C124.523 78.042 128.065 80.462 131.761 80.462C135.501 80.462 139.175 77.976 139.175 72.388ZM136.051 72.256C136.051 75.49 134.555 77.954 131.805 77.954C129.099 77.954 127.647 75.446 127.647 72.344C127.647 68.802 129.209 66.58 131.805 66.58C134.511 66.58 136.051 68.736 136.051 72.256ZM153.675 80L149.517 73.51C151.035 72.938 152.553 71.838 152.553 69.11C152.553 66.074 150.309 64.49 146.811 64.49H141.597V80H144.633V73.928H146.217L150.177 80H153.675ZM149.429 69.11C149.429 70.716 148.505 71.42 146.679 71.42H144.633V66.998H146.987C148.615 66.998 149.429 67.724 149.429 69.11ZM167.887 80L160.759 71.728L167.161 64.49H163.399L158.361 70.364V64.49H155.325V80H158.361V73.4L163.905 80H167.887ZM172.958 80V76.92H169.658V80H172.958ZM185.032 69.99C184.02 69.22 182.766 68.648 181.248 68.648C177.596 68.648 175.484 71.002 175.484 74.566C175.484 77.866 177.354 80.352 181.226 80.352C182.634 80.352 183.998 79.78 184.988 78.988L183.712 76.92C182.854 77.558 182.194 77.954 181.072 77.954C179.62 77.954 178.52 76.37 178.52 74.566C178.52 71.948 179.752 71.046 181.116 71.046C182.326 71.046 183.008 71.552 183.624 72.058L185.032 69.99ZM197.203 74.456C197.203 70.694 194.893 68.648 191.725 68.648C188.623 68.648 186.247 70.694 186.247 74.456C186.247 78.218 188.601 80.352 191.725 80.352C194.827 80.352 197.203 78.24 197.203 74.456ZM194.189 74.456C194.189 76.414 193.485 78.042 191.725 78.042C190.075 78.042 189.261 76.414 189.261 74.456C189.261 72.476 189.965 70.958 191.725 70.958C193.353 70.958 194.189 72.476 194.189 74.456ZM215.664 80V73.95C215.664 70.54 214.784 68.648 211.572 68.648C210.164 68.648 209.13 69.33 208.36 70.32C207.678 69.33 206.842 68.648 204.972 68.648C203.916 68.648 202.882 69.264 201.936 70.32L201.606 69H199.384C199.406 69.374 199.516 70.606 199.516 70.98V80H202.486V72.278C202.904 71.684 203.74 71.046 204.422 71.046C206.028 71.046 206.094 72.036 206.094 73.928V80H209.064V72.784C209.064 72.586 209.064 72.41 209.042 72.234C209.548 71.552 210.208 71.046 211.022 71.046C212.496 71.046 212.694 72.212 212.694 73.884V80H215.664ZM222.05 80V76.92H218.75V80H222.05ZM233.221 76.964C233.221 74.544 231.483 73.774 230.427 73.488C228.667 73.026 227.655 72.762 227.655 71.838C227.655 71.244 228.117 70.958 229.173 70.958C229.679 70.958 231.065 71.222 231.923 71.948L233.111 69.968C231.879 69.022 230.625 68.692 229.041 68.692C226.203 68.692 224.619 70.1 224.619 72.124C224.619 74.302 226.555 75.204 228.051 75.578C229.393 75.908 230.185 76.194 230.185 77.052C230.185 77.69 229.745 78.042 228.667 78.042C227.545 78.042 226.379 77.448 225.433 76.744L224.135 78.79C225.499 79.692 226.731 80.308 228.755 80.308C231.329 80.308 233.221 79.23 233.221 76.964ZM244.414 80C244.414 79.626 244.282 78.152 244.282 77.712V72.85C244.282 69.814 242.698 68.648 239.376 68.648C237.946 68.648 236.604 69.11 235.13 69.88L235.988 71.882C237.066 71.288 238.166 70.782 239.794 70.782C240.608 70.782 241.312 71.332 241.312 72.608V73.004H240.168C236.89 73.004 234.756 74.28 234.756 76.788C234.756 79.428 236.802 80.352 238.54 80.352C239.948 80.352 241.158 79.692 241.862 78.746L242.192 80H244.414ZM241.312 77.228C241.004 77.69 240.366 78.218 239.442 78.218C238.408 78.218 237.792 77.646 237.792 76.744C237.792 75.292 238.936 74.896 240.41 74.896H241.312V77.228Z" fill="#151515"/>
<defs>
<linearGradient id="paint0_linear_2148_177" x1="45.6923" y1="84.9231" x2="84" y2="39.2308" gradientUnits="userSpaceOnUse">
<stop stop-color="#00539E"/>
<stop offset="1" stop-color="#006DCF"/>
</linearGradient>
</defs>
</svg>
