<svg width="340" height="120" viewBox="0 0 340 120" fill="none" xmlns="http://www.w3.org/2000/svg">
<rect width="340" height="120" rx="16" fill="white"/>
<path d="M90 60C90 76.5688 76.5688 90 60 90C43.4312 90 30 76.5688 30 60C30 43.4312 43.4312 30 60 30C76.5688 30 90 43.4312 90 60Z" fill="url(#paint0_linear_2148_177)"/>
<path d="M43.8662 56.3342C43.867 56.3334 43.8679 56.3326 43.8687 56.3318L58.1777 42.0233C58.7876 41.4131 59.5985 41.0769 60.4611 41.0769C61.3236 41.0769 62.1345 41.4128 62.7447 42.023L77.0463 56.3243C77.0511 56.3291 77.0559 56.3342 77.0607 56.339C78.3132 57.5987 78.3111 59.6426 77.0546 60.8991C76.4805 61.4734 75.7224 61.806 74.9117 61.8408C74.8788 61.844 74.8456 61.8456 74.8122 61.8456H74.2419V72.3758C74.2419 74.4596 72.5465 76.155 70.4622 76.155H64.864C64.2967 76.155 63.8364 75.6949 63.8364 75.1273V66.8716C63.8364 65.9208 63.0629 65.1473 62.1121 65.1473H58.8101C57.8592 65.1473 57.0858 65.9208 57.0858 66.8716V75.1273C57.0858 75.6949 56.6258 76.155 56.0581 76.155H50.46C48.3757 76.155 46.6803 74.4596 46.6803 72.3758V61.8456H46.1515C45.2892 61.8456 44.4783 61.5098 43.8679 60.8996C42.61 59.641 42.6095 57.5936 43.8662 56.3342Z" fill="white"/>
<path d="M124.08 67.49H120.736L117.48 73.584L113.894 67.49H110.44L115.94 76.664V83H118.932V76.664L124.08 67.49ZM139.175 75.388C139.175 69.69 135.941 67.072 131.849 67.072C127.867 67.072 124.523 69.69 124.523 75.256C124.523 81.042 128.065 83.462 131.761 83.462C135.501 83.462 139.175 80.976 139.175 75.388ZM136.051 75.256C136.051 78.49 134.555 80.954 131.805 80.954C129.099 80.954 127.647 78.446 127.647 75.344C127.647 71.802 129.209 69.58 131.805 69.58C134.511 69.58 136.051 71.736 136.051 75.256ZM153.675 83L149.517 76.51C151.035 75.938 152.553 74.838 152.553 72.11C152.553 69.074 150.309 67.49 146.811 67.49H141.597V83H144.633V76.928H146.217L150.177 83H153.675ZM149.429 72.11C149.429 73.716 148.505 74.42 146.679 74.42H144.633V69.998H146.987C148.615 69.998 149.429 70.724 149.429 72.11ZM167.887 83L160.759 74.728L167.161 67.49H163.399L158.361 73.364V67.49H155.325V83H158.361V76.4L163.905 83H167.887ZM172.958 83V79.92H169.658V83H172.958ZM185.032 72.99C184.02 72.22 182.766 71.648 181.248 71.648C177.596 71.648 175.484 74.002 175.484 77.566C175.484 80.866 177.354 83.352 181.226 83.352C182.634 83.352 183.998 82.78 184.988 81.988L183.712 79.92C182.854 80.558 182.194 80.954 181.072 80.954C179.62 80.954 178.52 79.37 178.52 77.566C178.52 74.948 179.752 74.046 181.116 74.046C182.326 74.046 183.008 74.552 183.624 75.058L185.032 72.99ZM197.203 77.456C197.203 73.694 194.893 71.648 191.725 71.648C188.623 71.648 186.247 73.694 186.247 77.456C186.247 81.218 188.601 83.352 191.725 83.352C194.827 83.352 197.203 81.24 197.203 77.456ZM194.189 77.456C194.189 79.414 193.485 81.042 191.725 81.042C190.075 81.042 189.261 79.414 189.261 77.456C189.261 75.476 189.965 73.958 191.725 73.958C193.353 73.958 194.189 75.476 194.189 77.456ZM215.664 83V76.95C215.664 73.54 214.784 71.648 211.572 71.648C210.164 71.648 209.13 72.33 208.36 73.32C207.678 72.33 206.842 71.648 204.972 71.648C203.916 71.648 202.882 72.264 201.936 73.32L201.606 72H199.384C199.406 72.374 199.516 73.606 199.516 73.98V83H202.486V75.278C202.904 74.684 203.74 74.046 204.422 74.046C206.028 74.046 206.094 75.036 206.094 76.928V83H209.064V75.784C209.064 75.586 209.064 75.41 209.042 75.234C209.548 74.552 210.208 74.046 211.022 74.046C212.496 74.046 212.694 75.212 212.694 76.884V83H215.664ZM222.05 83V79.92H218.75V83H222.05ZM233.221 79.964C233.221 77.544 231.483 76.774 230.427 76.488C228.667 76.026 227.655 75.762 227.655 74.838C227.655 74.244 228.117 73.958 229.173 73.958C229.679 73.958 231.065 74.222 231.923 74.948L233.111 72.968C231.879 72.022 230.625 71.692 229.041 71.692C226.203 71.692 224.619 73.1 224.619 75.124C224.619 77.302 226.555 78.204 228.051 78.578C229.393 78.908 230.185 79.194 230.185 80.052C230.185 80.69 229.745 81.042 228.667 81.042C227.545 81.042 226.379 80.448 225.433 79.744L224.135 81.79C225.499 82.692 226.731 83.308 228.755 83.308C231.329 83.308 233.221 82.23 233.221 79.964ZM244.414 83C244.414 82.626 244.282 81.152 244.282 80.712V75.85C244.282 72.814 242.698 71.648 239.376 71.648C237.946 71.648 236.604 72.11 235.13 72.88L235.988 74.882C237.066 74.288 238.166 73.782 239.794 73.782C240.608 73.782 241.312 74.332 241.312 75.608V76.004H240.168C236.89 76.004 234.756 77.28 234.756 79.788C234.756 82.428 236.802 83.352 238.54 83.352C239.948 83.352 241.158 82.692 241.862 81.746L242.192 83H244.414ZM241.312 80.228C241.004 80.69 240.366 81.218 239.442 81.218C238.408 81.218 237.792 80.646 237.792 79.744C237.792 78.292 238.936 77.896 240.41 77.896H241.312V80.228Z" fill="#151515"/>
<path d="M120.548 39.31H119.27L115.742 45.52L111.962 39.31H110.63L115.148 46.618V52H116.3V46.618L120.548 39.31ZM132.285 45.664C132.285 41.812 130.269 39.022 126.885 39.022C123.465 39.022 121.449 41.866 121.449 45.664C121.449 49.48 123.447 52.288 126.849 52.288C130.305 52.288 132.285 49.426 132.285 45.664ZM131.115 45.664C131.115 49.03 129.477 51.298 126.867 51.298C124.293 51.298 122.619 49.048 122.619 45.664C122.619 42.208 124.293 40.012 126.867 40.012C129.459 40.012 131.115 42.208 131.115 45.664ZM142.939 52L139.195 46.276C140.941 46.114 142.381 44.926 142.381 42.766C142.381 40.624 140.959 39.31 138.169 39.31H134.803V52H135.919V46.366H137.953L141.571 52H142.939ZM141.211 42.766C141.211 44.314 140.383 45.412 138.205 45.412H135.919V40.264H138.295C140.185 40.264 141.211 41.218 141.211 42.766ZM153.648 52L147.6 45.232L153.306 39.31H151.866L146.484 44.944V39.31H145.368V52H146.484V45.646L152.118 52H153.648ZM169.244 52V39.31H168.11V45.034H161.882V39.31H160.766V52H161.882V46.006H168.11V52H169.244ZM179.768 47.464C179.768 44.962 178.544 42.802 175.754 42.802C173.072 42.802 171.74 45.016 171.74 47.464C171.74 50.038 173 52.198 175.754 52.198C178.562 52.198 179.768 50.002 179.768 47.464ZM178.616 47.464C178.616 49.642 177.698 51.28 175.754 51.28C173.828 51.28 172.892 49.642 172.892 47.464C172.892 45.304 173.9 43.72 175.754 43.72C177.662 43.72 178.616 45.304 178.616 47.464ZM194.054 52V46.348C194.054 43.99 193.064 42.802 191.12 42.802C189.626 42.802 188.816 43.684 188.312 44.422C187.898 43.486 187.106 42.802 185.72 42.802C184.514 42.802 183.722 43.432 183.128 44.242L183.038 43H182.12C182.138 43.306 182.174 44.35 182.174 44.656V52H183.272V45.196C183.704 44.584 184.352 43.738 185.522 43.738C186.908 43.738 187.556 44.674 187.556 46.15V52H188.654V45.952C188.654 45.736 188.618 45.466 188.6 45.358C188.978 44.692 189.788 43.738 190.922 43.738C192.326 43.738 192.956 44.674 192.956 46.276V52H194.054ZM204.014 47.842C204.014 45.016 203.168 42.802 200.342 42.802C198.344 42.802 196.49 44.368 196.49 47.59C196.49 50.578 198.308 52.198 200.648 52.198C201.944 52.198 202.898 51.748 203.726 51.1L203.186 50.344C202.556 50.83 201.71 51.262 200.648 51.262C199.118 51.262 197.75 50.146 197.66 47.842H204.014ZM202.88 46.942H197.66C197.804 44.782 198.902 43.702 200.342 43.702C201.944 43.702 202.844 44.764 202.88 46.942ZM219.214 43.108C219.214 40.462 217.36 39.31 214.732 39.31H211.708V52H212.824V47.05H214.912C217.45 47.05 219.214 45.718 219.214 43.108ZM218.044 43.108C218.044 45.25 216.64 46.078 214.768 46.078H212.824V40.264H214.678C216.55 40.264 218.044 41.002 218.044 43.108ZM227.512 52C227.512 51.694 227.458 50.488 227.458 50.128V45.808C227.458 43.99 226.612 42.802 224.29 42.802C223.156 42.802 222.058 43.162 221.248 43.576L221.626 44.476C222.346 44.134 223.21 43.738 224.47 43.738C225.55 43.738 226.36 44.314 226.36 45.754V46.582H225.298C222.274 46.582 220.834 47.68 220.834 49.57C220.834 51.19 222.058 52.198 223.732 52.198C225.19 52.198 226.072 51.424 226.468 50.848C226.468 50.956 226.594 51.91 226.594 52H227.512ZM226.36 49.966C225.91 50.614 225.064 51.262 224.038 51.262C222.832 51.262 221.986 50.524 221.986 49.534C221.986 48.094 223.03 47.41 225.496 47.41H226.36V49.966ZM237.754 42.784L234.532 42.91C234.226 42.838 233.884 42.802 233.506 42.802C231.382 42.802 230.05 44.116 230.05 45.97C230.05 47.122 230.554 47.932 231.31 48.418C230.824 48.76 230.41 49.21 230.41 49.768C230.41 50.434 230.77 50.866 231.436 51.136C230.59 51.46 229.672 52.252 229.672 53.44C229.672 55.366 231.49 56.05 233.74 56.05C235.63 56.05 237.448 55.078 237.448 53.35C237.448 51.838 236.44 51.082 235.09 50.848L232.732 50.452C232.12 50.344 231.472 50.146 231.472 49.606C231.472 49.246 231.634 48.976 231.922 48.76C232.372 48.94 233.038 49.084 233.578 49.084C235.27 49.084 237.016 48.13 237.016 45.898C237.016 45.016 236.53 44.206 235.864 43.756L237.52 43.792L237.754 42.784ZM235.936 45.898C235.936 47.41 234.928 48.184 233.524 48.184C232.102 48.184 231.148 47.428 231.148 45.952C231.148 44.602 232.012 43.702 233.506 43.702C234.838 43.702 235.936 44.332 235.936 45.898ZM236.314 53.35C236.314 54.412 235.18 55.15 233.704 55.15C232.264 55.15 230.716 54.7 230.716 53.314C230.716 52.324 231.382 51.748 232.192 51.424L234.802 51.838C235.792 52 236.314 52.504 236.314 53.35ZM246.887 47.842C246.887 45.016 246.041 42.802 243.215 42.802C241.217 42.802 239.363 44.368 239.363 47.59C239.363 50.578 241.181 52.198 243.521 52.198C244.817 52.198 245.771 51.748 246.599 51.1L246.059 50.344C245.429 50.83 244.583 51.262 243.521 51.262C241.991 51.262 240.623 50.146 240.533 47.842H246.887ZM245.753 46.942H240.533C240.677 44.782 241.775 43.702 243.215 43.702C244.817 43.702 245.717 44.764 245.753 46.942Z" fill="#151515"/>
<defs>
<linearGradient id="paint0_linear_2148_177" x1="45.6923" y1="84.9231" x2="84" y2="39.2308" gradientUnits="userSpaceOnUse">
<stop stop-color="#00539E"/>
<stop offset="1" stop-color="#006DCF"/>
</linearGradient>
</defs>
</svg>
