<svg width="45" height="45" viewBox="0 0 45 45" fill="none" xmlns="http://www.w3.org/2000/svg">
<path d="M22.5056 0H22.4944C10.0884 0 0 10.0912 0 22.5C0 27.4219 1.58625 31.9838 4.28344 35.6878L1.47938 44.0466L10.1278 41.2819C13.6856 43.6388 17.9297 45 22.5056 45C34.9116 45 45 34.9059 45 22.5C45 10.0941 34.9116 0 22.5056 0Z" fill="#4CAF50"/>
<path d="M35.598 31.7728C35.0552 33.3056 32.9009 34.5769 31.1824 34.9481C30.0068 35.1984 28.4712 35.3981 23.3018 33.255C16.6896 30.5156 12.4315 23.7965 12.0996 23.3606C11.7818 22.9247 9.42773 19.8028 9.42773 16.5741C9.42773 13.3453 11.0674 11.7731 11.7284 11.0981C12.2712 10.544 13.1684 10.2909 14.029 10.2909C14.3074 10.2909 14.5577 10.305 14.7827 10.3162C15.4437 10.3444 15.7755 10.3837 16.2115 11.4272C16.7543 12.735 18.0762 15.9637 18.2337 16.2956C18.394 16.6275 18.5543 17.0775 18.3293 17.5134C18.1184 17.9634 17.9327 18.1631 17.6009 18.5456C17.269 18.9281 16.954 19.2206 16.6221 19.6312C16.3184 19.9884 15.9752 20.3709 16.3577 21.0319C16.7402 21.6787 18.0621 23.8359 20.0084 25.5684C22.5199 27.8044 24.5562 28.5187 25.2846 28.8225C25.8274 29.0475 26.4743 28.9941 26.8709 28.5722C27.3743 28.0294 27.9959 27.1294 28.6287 26.2434C29.0787 25.6078 29.6468 25.529 30.243 25.754C30.8505 25.965 34.0652 27.554 34.7262 27.8831C35.3871 28.215 35.823 28.3725 35.9834 28.6509C36.1409 28.9294 36.1409 30.2372 35.598 31.7728Z" fill="#FAFAFA"/>
</svg>
